HIERARCHY
ROOT Haolin_28_06:Solving:Hips
{
	OFFSET 0.000000 0.000000 0.000000
	CHANNELS 6 Xposition Yposition Zposition Xrotation Yrotation Zrotation
	JOINT Haolin_28_06:Solving:Spine
	{
		OFFSET 0.000000 -12.181966 2.015561
		CHANNELS 6 Xposition Yposition Zposition Xrotation Yrotation Zrotation
		JOINT Haolin_28_06:Solving:Spine1
		{
			OFFSET 0.000000 -8.890296 1.567602
			CHANNELS 6 Xposition Yposition Zposition Xrotation Yrotation Zrotation
			JOINT Haolin_28_06:Solving:Spine2
			{
				OFFSET 0.000000 -8.993092 0.786796
				CHANNELS 6 Xposition Yposition Zposition Xrotation Yrotation Zrotation
				JOINT Haolin_28_06:Solving:Spine3
				{
					OFFSET 0.000000 -9.027443 0.000000
					CHANNELS 6 Xposition Yposition Zposition Xrotation Yrotation Zrotation
					JOINT Haolin_28_06:Solving:Neck
					{
						OFFSET 0.000000 -11.606712 -1.160669
						CHANNELS 6 Xposition Yposition Zposition Xrotation Yrotation Zrotation
						JOINT Haolin_28_06:Solving:Neck1
						{
							OFFSET 0.000000 -7.471592 -0.653680
							CHANNELS 6 Xposition Yposition Zposition Xrotation Yrotation Zrotation
							JOINT Haolin_28_06:Solving:Head
							{
								OFFSET 0.000000 -7.386181 -1.302382
								CHANNELS 6 Xposition Yposition Zposition Xrotation Yrotation Zrotation
								JOINT Haolin_28_06:Solving:HeadEnd
								{
									OFFSET 0.000000 -9.728081 0.000002
									CHANNELS 6 Xposition Yposition Zposition Xrotation Yrotation Zrotation
									End Site
									{
										OFFSET 0.000000 -9.728081 0.000002
									}
								}
							}
						}
					}
					JOINT Haolin_28_06:Solving:RightShoulder
					{
						OFFSET 0.000000 -8.290508 -5.270916
						CHANNELS 6 Xposition Yposition Zposition Xrotation Yrotation Zrotation
						JOINT Haolin_28_06:Solving:RightArm
						{
							OFFSET -19.261074 -0.000008 0.000000
							CHANNELS 6 Xposition Yposition Zposition Xrotation Yrotation Zrotation
							JOINT Haolin_28_06:Solving:RightForeArm
							{
								OFFSET -30.691700 -0.000011 0.000000
								CHANNELS 6 Xposition Yposition Zposition Xrotation Yrotation Zrotation
								JOINT Haolin_28_06:Solving:RightHand
								{
									OFFSET -20.216934 -0.000008 0.000000
									CHANNELS 6 Xposition Yposition Zposition Xrotation Yrotation Zrotation
									JOINT Haolin_28_06:Solving:RightHandThumb1
									{
										OFFSET -4.948814 2.881329 -3.679893
										CHANNELS 6 Xposition Yposition Zposition Xrotation Yrotation Zrotation
										End Site
										{
											OFFSET -7.039886 -0.000004 -7.104978
										}
									}
									JOINT Haolin_28_06:Solving:RightHandMiddle1
									{
										OFFSET -13.196846 -0.000004 0.084595
										CHANNELS 6 Xposition Yposition Zposition Xrotation Yrotation Zrotation
										End Site
										{
											OFFSET -10.002037 -0.000004 0.000000
										}
									}
								}
							}
						}
					}
					JOINT Haolin_28_06:Solving:LeftShoulder
					{
						OFFSET 0.000000 -8.290508 -5.270916
						CHANNELS 6 Xposition Yposition Zposition Xrotation Yrotation Zrotation
						JOINT Haolin_28_06:Solving:LeftArm
						{
							OFFSET 19.261074 -0.000008 0.000000
							CHANNELS 6 Xposition Yposition Zposition Xrotation Yrotation Zrotation
							JOINT Haolin_28_06:Solving:LeftForeArm
							{
								OFFSET 30.691700 -0.000011 0.000000
								CHANNELS 6 Xposition Yposition Zposition Xrotation Yrotation Zrotation
								JOINT Haolin_28_06:Solving:LeftHand
								{
									OFFSET 20.216934 -0.000008 0.000000
									CHANNELS 6 Xposition Yposition Zposition Xrotation Yrotation Zrotation
									JOINT Haolin_28_06:Solving:LeftHandThumb1
									{
										OFFSET 4.948814 2.881329 -3.679893
										CHANNELS 6 Xposition Yposition Zposition Xrotation Yrotation Zrotation
										End Site
										{
											OFFSET 7.039886 -0.000004 -7.104978
										}
									}
									JOINT Haolin_28_06:Solving:LeftHandMiddle1
									{
										OFFSET 13.196846 -0.000004 0.084595
										CHANNELS 6 Xposition Yposition Zposition Xrotation Yrotation Zrotation
										End Site
										{
											OFFSET 10.002037 -0.000004 0.000000
										}
									}
								}
							}
						}
					}
				}
			}
		}
	}
	JOINT Haolin_28_06:Solving:RightUpLeg
	{
		OFFSET -10.083070 0.000000 0.000000
		CHANNELS 6 Xposition Yposition Zposition Xrotation Yrotation Zrotation
		JOINT Haolin_28_06:Solving:RightLeg
		{
			OFFSET 0.000000 47.042522 -0.000008
			CHANNELS 6 Xposition Yposition Zposition Xrotation Yrotation Zrotation
			JOINT Haolin_28_06:Solving:RightFoot
			{
				OFFSET 0.000000 38.766415 -0.000006
				CHANNELS 6 Xposition Yposition Zposition Xrotation Yrotation Zrotation
				JOINT Haolin_28_06:Solving:RightForeFoot
				{
					OFFSET 0.000000 3.531212 -0.000000
					CHANNELS 6 Xposition Yposition Zposition Xrotation Yrotation Zrotation
					JOINT Haolin_28_06:Solving:RightToeBase
					{
						OFFSET 0.000000 0.000000 -13.829352
						CHANNELS 6 Xposition Yposition Zposition Xrotation Yrotation Zrotation
						JOINT Haolin_28_06:Solving:RightToeBaseEnd
						{
							OFFSET 0.000000 0.000000 -4.034167
							CHANNELS 6 Xposition Yposition Zposition Xrotation Yrotation Zrotation
							End Site
							{
								OFFSET 0.000000 -4.034164 0.000004
							}
						}
					}
				}
			}
		}
	}
	JOINT Haolin_28_06:Solving:LeftUpLeg
	{
		OFFSET 10.083070 0.000000 0.000000
		CHANNELS 6 Xposition Yposition Zposition Xrotation Yrotation Zrotation
		JOINT Haolin_28_06:Solving:LeftLeg
		{
			OFFSET 0.000000 47.042522 -0.000008
			CHANNELS 6 Xposition Yposition Zposition Xrotation Yrotation Zrotation
			JOINT Haolin_28_06:Solving:LeftFoot
			{
				OFFSET 0.000000 38.766415 -0.000006
				CHANNELS 6 Xposition Yposition Zposition Xrotation Yrotation Zrotation
				JOINT Haolin_28_06:Solving:LeftForeFoot
				{
					OFFSET 0.000000 3.531212 -0.000000
					CHANNELS 6 Xposition Yposition Zposition Xrotation Yrotation Zrotation
					JOINT Haolin_28_06:Solving:LeftToeBase
					{
						OFFSET 0.000000 0.000000 -13.829352
						CHANNELS 6 Xposition Yposition Zposition Xrotation Yrotation Zrotation
						JOINT Haolin_28_06:Solving:LeftToeBaseEnd
						{
							OFFSET 0.000000 0.000000 -4.855067
							CHANNELS 6 Xposition Yposition Zposition Xrotation Yrotation Zrotation
							End Site
							{
								OFFSET 0.000000 -4.855064 0.000004
							}
						}
					}
				}
			}
		}
	}
}
MOTION
Frames: 4
Frame Time: 0.041667
10.827445 28.991131 -93.414825 79.360979 1.773776 -2.812719 -0.000000 -12.181951 2.015559 17.641358 0.287282 -0.551506 -0.000001 -8.890294 1.567604 0.951987 0.116732 -0.187458 0.000003 -8.993083 0.786798 1.827625 2.862873 0.203563 0.000000 -9.027413 -0.000009 4.269021 0.227590 1.406070 -0.000001 -11.606701 -1.160664 -4.172636 0.583487 -1.040254 -0.000001 -7.471607 -0.653676 -0.416124 -5.271162 -2.445463 0.000004 -7.386222 -1.302385 5.196078 -0.046568 -2.577539 -0.000002 -9.728058 -0.000013 -0.000001 0.000000 -0.000001 0.000000 -8.290527 -5.270909 -0.000010 17.231046 5.835710 -19.261068 0.000005 -0.000001 -2.919523 -48.017948 -77.850223 -30.691710 -0.000022 -0.000004 -24.509495 -11.469091 -5.180043 -20.216892 -0.000016 0.000008 0.822821 -11.155730 4.245296 -4.948802 2.881327 -3.679877 -0.000002 -0.000005 0.000006 -13.196833 -0.000008 0.084596 -0.000001 -0.000003 -0.000002 -0.000002 -8.290527 -5.270913 -0.000002 -8.479260 -7.006697 19.261070 0.000015 -0.000004 -15.736532 44.193540 77.191110 30.691700 -0.000011 -0.000000 -1.287761 24.566527 0.535466 20.216934 -0.000019 -0.000003 0.094791 1.496094 -3.625764 4.948816 2.881329 -3.679867 0.000002 0.000000 0.000003 13.196869 0.000003 0.084600 0.000001 -0.000004 0.000000 -10.083074 0.000020 -0.000003 1.963833 17.264722 13.222633 -0.000005 47.042519 -0.000001 14.807597 -0.000005 -0.000001 0.000004 38.766418 -0.000004 -0.470254 7.775983 -15.912295 0.000001 3.531212 -0.000000 -0.000001 0.000003 -0.000002 0.000001 0.000003 -13.829366 -2.506714 -0.000002 -0.000001 0.000000 0.000008 -4.034168 0.000000 0.000003 0.000000 10.083071 0.000014 -0.000007 6.312051 -7.131899 1.546651 -0.000002 47.042526 -0.000002 15.372295 -0.000002 -0.000001 -0.000002 38.766415 -0.000004 -2.146737 -18.457055 12.658583 -0.000000 3.531204 0.000004 0.000001 -0.000001 0.000000 -0.000002 0.000022 -13.829354 3.861680 -0.000003 -0.000002 -0.000000 -0.000008 -4.855068 0.000000 0.000002 0.000000 
10.850944 29.033077 -93.393890 79.155902 2.092238 -2.909061 -0.000001 -12.181969 2.015581 17.712629 0.291978 -0.377441 -0.000000 -8.890310 1.567606 0.967373 0.110753 -0.163390 0.000001 -8.993090 0.786798 1.862605 2.845454 0.243780 0.000000 -9.027443 0.000000 4.283106 0.215243 1.511998 0.000000 -11.606723 -1.160664 -4.176193 0.576467 -0.948360 0.000000 -7.471612 -0.653685 -0.449436 -5.167130 -2.448247 -0.000000 -7.386232 -1.302389 5.142251 -0.036091 -2.593935 0.000001 -9.728096 0.000006 0.000000 0.000000 -0.000002 0.000000 -8.290531 -5.270907 -0.000012 17.156952 5.790803 -19.261076 0.000009 0.000004 -2.616000 -48.625916 -78.191821 -30.691708 -0.000010 0.000000 -24.342137 -11.442913 -5.128712 -20.216917 -0.000010 -0.000000 0.785174 -11.156437 4.051456 -4.948769 2.881321 -3.679883 -0.000001 0.000003 0.000000 -13.196837 -0.000014 0.084597 -0.000002 0.000001 0.000001 -0.000001 -8.290531 -5.270907 -0.000012 -8.501380 -6.943616 19.261080 -0.000008 0.000010 -16.301741 43.874830 77.470273 30.691711 -0.000008 -0.000006 -1.317947 24.783428 0.552562 20.216948 -0.000006 -0.000003 0.101866 1.528922 -3.812064 4.948831 2.881321 -3.679879 -0.000006 -0.000007 0.000000 13.196877 0.000001 0.084600 -0.000010 -0.000002 0.000000 -10.083071 0.000005 0.000021 2.320696 16.693667 13.341560 -0.000003 47.042545 -0.000003 14.612051 -0.000001 -0.000002 0.000006 38.766426 -0.000006 -0.570111 8.045036 -16.253332 0.000002 3.531212 0.000001 -0.000001 0.000003 0.000000 -0.000000 0.000002 -13.829353 -2.010355 -0.000007 -0.000001 0.000001 -0.000008 -4.034170 -0.000000 0.000002 -0.000002 10.083068 -0.000008 0.000013 6.717674 -7.347377 1.715667 0.000003 47.042534 -0.000010 15.151598 -0.000001 -0.000001 -0.000008 38.766418 -0.000017 -2.132950 -18.517418 12.765279 0.000000 3.531204 -0.000001 -0.000001 -0.000000 0.000002 -0.000001 0.000021 -13.829350 3.903719 0.000001 0.000000 -0.000002 0.000000 -4.855073 0.000001 0.000004 0.000000 
10.864309 29.079992 -93.377754 78.942650 2.377789 -2.980168 -0.000002 -12.181978 2.015564 17.782818 0.298392 -0.236672 0.000001 -8.890285 1.567597 0.981360 0.105904 -0.138524 0.000002 -8.993068 0.786793 1.901879 2.833949 0.281600 0.000001 -9.027442 -0.000003 4.298432 0.205299 1.608110 0.000001 -11.606737 -1.160656 -4.173673 0.567811 -0.861249 -0.000000 -7.471573 -0.653678 -0.478845 -5.067601 -2.435575 -0.000001 -7.386184 -1.302379 5.096992 -0.028823 -2.584584 0.000008 -9.728111 -0.000003 0.000000 0.000000 0.000002 0.000001 -8.290539 -5.270903 -0.000010 17.062957 5.736240 -19.261068 0.000014 0.000007 -2.357289 -49.216076 -78.568021 -30.691700 -0.000006 0.000009 -24.067915 -11.357700 -5.026811 -20.216906 -0.000015 0.000008 0.752129 -11.225655 3.857896 -4.948828 2.881325 -3.679882 0.000001 -0.000002 0.000002 -13.196846 -0.000003 0.084583 0.000002 -0.000001 0.000000 0.000001 -8.290539 -5.270903 -0.000009 -8.515368 -6.847217 19.261068 0.000042 -0.000005 -16.823111 43.553941 77.735906 30.691700 -0.000019 -0.000002 -1.404561 25.012685 0.593977 20.216911 -0.000005 0.000008 0.110487 1.579654 -4.001404 4.948820 2.881339 -3.679876 -0.000003 -0.000005 -0.000004 13.196859 0.000016 0.084608 -0.000003 0.000000 -0.000002 -10.083073 -0.000010 0.000003 2.690061 16.179258 13.422416 -0.000000 47.042534 -0.000011 14.431549 -0.000003 -0.000002 0.000006 38.766430 -0.000009 -0.655071 8.246590 -16.511340 0.000002 3.531212 -0.000002 0.000000 -0.000002 0.000001 0.000006 0.000011 -13.829358 -1.737924 -0.000001 0.000000 -0.000004 0.000001 -4.034180 0.000002 0.000000 -0.000001 10.083066 -0.000008 0.000000 7.128794 -7.566376 1.847814 0.000001 47.042507 0.000004 14.927148 -0.000001 -0.000001 -0.000006 38.766426 -0.000008 -2.121195 -18.538971 12.855430 0.000004 3.531219 0.000004 -0.000000 0.000002 0.000000 -0.000006 -0.000008 -13.829361 3.965444 0.000004 -0.000001 -0.000000 -0.000007 -4.855073 0.000001 0.000001 0.000002 
10.865931 29.136829 -93.367004 78.735217 2.623542 -3.020144 -0.000000 -12.181960 2.015558 17.814223 0.313053 -0.116645 -0.000002 -8.890306 1.567597 1.002113 0.102075 -0.124422 0.000001 -8.993114 0.786794 1.939801 2.834715 0.307245 -0.000001 -9.027452 0.000001 4.329207 0.191548 1.710447 0.000000 -11.606722 -1.160675 -4.187887 0.573629 -0.783080 -0.000001 -7.471605 -0.653681 -0.465967 -4.989921 -2.414108 0.000001 -7.386158 -1.302387 5.060747 -0.023300 -2.578554 -0.000000 -9.728088 0.000004 -0.000000 0.000000 -0.000000 -0.000002 -8.290562 -5.270911 -0.000003 16.980967 5.655659 -19.261070 -0.000024 0.000015 -2.118035 -49.905245 -78.928573 -30.691710 -0.000022 -0.000004 -23.907709 -11.272745 -4.952656 -20.216934 -0.000014 0.000009 0.706218 -11.166434 3.641944 -4.948811 2.881325 -3.679875 -0.000002 -0.000009 0.000004 -13.196863 -0.000003 0.084608 -0.000001 -0.000002 -0.000002 -0.000002 -8.290562 -5.270911 -0.000005 -8.515443 -6.739641 19.261070 -0.000009 -0.000000 -17.298863 43.279541 78.000713 30.691669 -0.000020 -0.000003 -1.717765 25.217625 0.732049 20.216919 0.000007 0.000020 0.125403 1.720405 -4.169576 4.948825 2.881341 -3.679868 -0.000002 -0.000010 -0.000007 13.196862 -0.000001 0.084598 -0.000009 0.000001 0.000001 -10.083069 0.000008 0.000002 3.103201 15.660319 13.433184 0.000002 47.042530 -0.000002 14.209564 0.000004 -0.000000 0.000007 38.766418 -0.000010 -0.721273 8.486033 -16.690146 -0.000002 3.531220 0.000006 0.000001 -0.000001 -0.000001 0.000006 0.000010 -13.829354 -1.534727 -0.000005 0.000001 -0.000003 0.000000 -4.034164 -0.000000 0.000006 0.000001 10.083070 0.000002 -0.000004 7.541630 -7.733100 1.942658 0.000003 47.042526 -0.000001 14.679318 -0.000001 -0.000001 -0.000002 38.766422 -0.000011 -2.107823 -18.568605 12.945712 -0.000001 3.531219 0.000003 0.000000 -0.000004 -0.000000 -0.000002 0.000007 -13.829340 4.033376 0.000002 -0.000002 0.000005 0.000000 -4.855079 0.000001 0.000000 0.000001 
